<svg xmlns="http://www.w3.org/2000/svg" width="240" height="150" viewBox="0 0 240 150" role="img" aria-labelledby="title desc">
  <title id="title">Thank you, Wee Dram</title>
  <desc id="desc">A small whisky shot glass with patriotic stars, fireworks, and a quiet Murica LLM thank-you to Wee Dram.</desc>
  <defs>
    <linearGradient id="glass" x1="64" y1="24" x2="126" y2="128" gradientUnits="userSpaceOnUse">
      <stop offset="0" stop-color="#ffffff" stop-opacity="0.86"/>
      <stop offset="0.55" stop-color="#dbeafe" stop-opacity="0.28"/>
      <stop offset="1" stop-color="#93c5fd" stop-opacity="0.22"/>
    </linearGradient>
    <linearGradient id="dram" x1="73" y1="75" x2="118" y2="120" gradientUnits="userSpaceOnUse">
      <stop offset="0" stop-color="#ffd166"/>
      <stop offset="0.58" stop-color="#c46b1a"/>
      <stop offset="1" stop-color="#7c2d12"/>
    </linearGradient>
    <filter id="shadow" x="-20%" y="-20%" width="140%" height="150%">
      <feDropShadow dx="0" dy="5" stdDeviation="5" flood-color="#000000" flood-opacity="0.38"/>
    </filter>
  </defs>
  <rect width="240" height="150" rx="16" fill="#030712"/>
  <path d="M13 23h214M13 127h214" stroke="#b91c1c" stroke-width="7"/>
  <path d="M13 33h214M13 117h214" stroke="#f8fafc" stroke-width="5" opacity="0.9"/>
  <g opacity="0.9">
    <path d="M31 45l2.1 5.9 6.2.2-4.9 3.7 1.7 6-5.1-3.5-5.2 3.5 1.8-6-5-3.7 6.2-.2z" fill="#facc15"/>
    <path d="M203 42l1.8 5.2 5.5.2-4.4 3.2 1.6 5.3-4.5-3.1-4.5 3.1 1.6-5.3-4.4-3.2 5.5-.2z" fill="#facc15"/>
    <path d="M217 91l1.5 4.2 4.4.2-3.5 2.6 1.2 4.3-3.6-2.5-3.7 2.5 1.3-4.3-3.6-2.6 4.5-.2z" fill="#facc15"/>
  </g>
  <g fill="none" stroke-linecap="round" opacity="0.82">
    <path d="M36 82h22M47 71v22M39 74l16 16M55 74L39 90" stroke="#2563eb" stroke-width="3"/>
    <path d="M184 76h20M194 66v20M187 69l14 14M201 69l-14 14" stroke="#dc2626" stroke-width="3"/>
  </g>
  <g filter="url(#shadow)">
    <path d="M74 42h56l-10 80H84z" fill="url(#glass)" stroke="#f8fafc" stroke-width="3"/>
    <path d="M80 76h44l-5.2 42H86z" fill="url(#dram)"/>
    <path d="M82 78c13 5 27 5 40 0" fill="none" stroke="#ffe8a3" stroke-width="3" opacity="0.85"/>
    <path d="M91 49h9M86 58h7" stroke="#ffffff" stroke-width="4" stroke-linecap="round" opacity="0.72"/>
    <path d="M82 125h41" stroke="#f8fafc" stroke-width="6" stroke-linecap="round"/>
  </g>
  <text x="120" y="24" text-anchor="middle" fill="#f8fafc" font-family="Arial Black, Impact, sans-serif" font-size="14">THANK YOU</text>
  <text x="120" y="142" text-anchor="middle" fill="#facc15" font-family="Arial Black, Impact, sans-serif" font-size="15">WEE DRAM</text>
  <text x="120" y="64" text-anchor="middle" fill="#f8fafc" font-family="Arial, sans-serif" font-size="10" font-weight="700">'MURICA LLM</text>
</svg>
